# xmcd
#
# Track frame offsets: 
#        183
#        10840
#        17085
#        24208
#        35720
#        44953
#        56743
#        69500
#        80245
#        89838
#        97315
#        109478
#        120625
#        129025
#        141260
#        149730
#        162208
#
# Disc length: 2290 seconds
#
# Revision: 2
# Processed by: cddbd v1.5.2PL0 Copyright (c) Steve Scherf et al.
# Submitted via: ExactAudioCopy v0.99pb5
#
DISCID=0208f011
DTITLE=Elvis Presley - Elvis Through The Years Vol. 11-Good Luck Charm
DYEAR=1991
DGENRE=Rock and Roll
TTITLE0=KU-U-I-PA
TTITLE1=Ito Eats
TTITLE2=Slicin Sands
TTITLE3=Hawaiian Sunset
TTITLE4=Beach Boy Blues
TTITLE5=Island Of Love
TTITLE6=Hawaiian Wedding Song
TTITLE7=Good Luck Charm
TTITLE8=Anything That's Part Of You
TTITLE9=Follow The Dream
TTITLE10=Angel
TTITLE11=What A Wonderful Live
TTITLE12=I'm Not The Marrying Kind
TTITLE13=King Of The Whole Wide World
TTITLE14=Home Is Where The Heart Is
TTITLE15=Kiss Me Quick
TTITLE16=Just For Old Time Sake
EXTD=
EXTT0=
EXTT1=
EXTT2=
EXTT3=
EXTT4=
EXTT5=
EXTT6=
EXTT7=
EXTT8=
EXTT9=
EXTT10=
EXTT11=
EXTT12=
EXTT13=
EXTT14=
EXTT15=
EXTT16=
PLAYORDER=
